/* XPM */
static char *_b0486fa43204e92a132650b2c633013udhBnMyptn8auBUR[] = {
/* columns rows colors chars-per-pixel */
"320 32 26 1 ",
"  c black",
". c black",
"X c None",
"o c black",
"O c #5B3C2C",
"+ c #512D23",
"@ c #5E724A",
"# c #677755",
"$ c #70805F",
"% c #BEC49F",
"& c #8DAB5F",
"* c #453A35",
"= c #A2A97F",
"- c #3C312C",
"; c #7A2D18",
": c #778667",
"> c #342A25",
", c #6A7A5A",
"< c #2D2420",
"1 c #645C3F",
"2 c #5A5237",
"3 c #70694F",
"4 c #4A413C",
"5 c #625652",
"6 c #695D58",
"7 c white",
/* pixels */
"                                                                                                                                                                                                                                                                                                                                ",
"                                                                                                                                                                                                                                                                                                                                ",
"                                                                                                                                                                                                                                                                                                                                ",
"                                                                                                                                                                                                                                                                                                                                ",
"                                                                                                                                                                                                                                                                                                                                ",
"             ooooo                           ooooo                                                                                                                             ooooo                           ooooo                                                                                                            ",
"            oO++++o                         oO++++o                          ooooo                                                            ooooo                           oO++++o                         oO++++o                          ooooo                                                          ooooo             ",
"           oO@O++O@o                       oO@O++O@o                        oO++++o                          ooooo                           oO++++o                         oO@O++O@o                       oO@O++O@o                        oO++++o                          ooooo                         oO++++o            ",
"          o+O@O+O@@@o                     o+O@O+O@@@o                      oO@O++O@o                        oO++++o                         oO@O++O@o                       o+O@O+O@@@o                     o+O@O+O@@@o                      oO@O++O@o                        oO++++o                       oO@O++O@o           ",
"          o+O@OO#@@@o                     o+O@OO#@@@o                     o+O@O+O@@@o                      oO@O++O@o                       o+O@O+O@@@o                      o+O@OO#@@@o                     o+O@OO#@@@o                     o+O@O+O@@@o                      oO@O++O@o                     o+O@O+O@@@o          ",
"          oO@#O$$#@@o                     oO@#O$$#@@o                     o+O@OO#@@@o                     o+O@O+O@@@o                      o+O@OO#@@@o                      oO@#O$$#@@o                     oO@#O$$#@@o                     o+O@OO#@@@o                     o+O@O+O@@@o                    o+O@OO#@@@o          ",
"          o@#$O$$$#@o                     o@#$O$$$#@o                     oO@#O$$#@@o                     o+O@OO#@@@o                      oO@#O$$#@@o                      o@#$O$$$#@o                     o@#$O$$$#@o                     oO@#O$$#@@o                     o+O@OO#@@@o                    oO@#O$$#@@o          ",
"          o#oo$O$oo#o                     o#oo$O$oo#o                     o@#$O$$$#@o                     oO@#O$$#@@o                      o@#$O$$$#@o                      o#oo$O$oo#o                     o#oo$O$oo#o                     o@#$O$$$#@o                     oO@#O$$#@@o                    o@#$O$$$#@o          ",
"          o#%&$O$&%#o                     o#%&$O$&%#o                     o#oo$O$oo#o                     o@#$O$$$#@o                      o#oo$O$oo#o                      o#%&$O$&%#o                     o#%&$O$&%#o                     o#oo$O$oo#o                     o@#$O$$$#@o                    o#oo$O$oo#o          ",
"          o$$$$$O$$$o                     o$$$$$O$$$o                     o#%&$O$&%#o                     o#oo$O$oo#o                      o#%&$O$&%#o                      o$$$$$O$$$o                     o$$$$$O$$$o                     o#%&$O$&%#o                     o#oo$O$oo#o                    o#%&$O$&%#o          ",
"          o@$$$$$O$@o                     o@$$$$$O$@o                     o$$$$$O$$$o                     o#%&$O$&%#o                      o$$$$$O$$$o                      o@$$$$$O$@o                     o@$$$$$O$@o                     o$$$$$O$$$o                     o#%&$O$&%#o                    o$$$$$O$$$o          ",
"          o*@=$=$=O*o                     o*@=$=$=O*o                     o@$$$$$O$@o                     o$$$$$O$$$o                      o@$$$$$O$@o                      o*@=$=$=O*o                     o*@=$=$=O*o                     o@$$$$$O$@o                     o$$$$$O$$$o                    o@$$$$$O$@o          ",
"          o*-@=;=;-*o                     o*-@=;=;-*o                     o*@=$=$=O*o                     o@$$$$$O$@o                      o*@=$=$=O*o                      o*-@=;=;-*o                     o+-@=;=;-*o                     o*@=$=$=O*o                     o@$$$$$O$@o                    o*@=$=$=O*o          ",
"          o*--@;;--*o                    o++--@;;-**o                     o*-@=;=;-*o                     o*@=$=$=O*o                      o+*@=;=;**o                      o+--@;;--*o                     o:+-@;;--**o                    o+-@=;=;-*o                     o*@=$=$=O*o                    o+*@=;=;**o          ",
"          o+-------*o                    o:+------**o                    o++--@;;-**o                     o+-@=;=;-*o                      o++-@;;-**o                      o+-------*o                     o*:------**o                    o:+-@;;--**o                    o+-@=;=;-*o                    o++-@;;-**o          ",
"          o:>--;-$>*o                    o*:>--;-$**o                    o:+------**o                     o+--@;;--*o                      o:+----$**o                      o:>----$>*o                     o**----$>**o                    o*:------**o                    o+--@;;--*o                    o:+----$**o          ",
"         o**o>>>,,**o                    o*oo>>>,,*o                     o*:>----$**o                     o:>----$>*o                      o*:>>>,,**o                      o**>>>,,o**o                     o*>>>,,oo*o                    o**----$>**o                    o:>----$>*o                    o*:>>>,,**o          ",
"         o**o>>>,>**o                   o**oo>>>,**o                     o*oo>>>,>*o                     o**o>>>,>**o                      o**>>>,>**o                      o**>>>,>o**o                     o**>>,>oo**o                    o*>>>,>oo*o                    o**>>>,>o**o                   o**>>>,>**o          ",
"         o**o>>>>>**o                   o**oo<<<<::o                    o**oo<<;<**o                     o**o<<;<<**o                      o**<<<<<**o                      o**>>>>>o**o                     o::<<<<oo**o                    o**<<<<oo**o                   o**<<<<<o**o                   o**<<<<<**o          ",
"         o::111111::o                   o::o1111111o                    o**o11111::o                     o**111111**o                      o**11111**o                      o::111111::o                     o1111111o::o                    o::11111o**o                   o**111111**o                   o**11111**o          ",
"          oo1112111o                     ooo1112111o                    o::o1112111o                     o::111211::o                      o::11211::o                       o1112111oo                      o1112111ooo                     o1112111o::o                   o::112111::o                   o::11211::o          ",
"           o112o333o                       o112o333o                     ooo112o333o                      oo112o333o                        o112o333o                        o333o211o                       o333o211o                       o333o211ooo                     o333o211oo                     o333o211o           ",
"           o11o o@@o                       o11o o@@o                       o11o ooo                        o11o o@@o                        o11; o@@o                        o4;o o11o                       o55o o11o                        ooo o11o                       o55o o11o                      o44o o11o           ",
"           o44o o,,o                       o44o  oo                        o44o                            o44o  oo                         o44o o,,o                        o66o o,,o                        oo  o,,o                            o,,o                        ;o; o,,o                      o6;o;o,,o           ",
"           o66o  oo                        o66o                            o66o                            o66o                             o66o  oo                          oo  o::o                         ;  o::o                         ;  o::o                            o::o                       oo  o::o           ",
"         ..XXXX.XXXX.                   ...XXXX.XXXX.                   ...XXXX......                    ..XXXX.XXXX.                      .XXXX.XXXX.                      .XXXX.XXXX..                    .XXXX.XXXX...                   ......XXXX...                   .XXXX.XXXX..                   .XXXX.XXXX.          ",
"          ..........                     ...........                     ...........                      ..........                        .........                        ..........                      ...........                     ...........                     ..........                     .........           "
};
