/* XPM */
static char *_ba4d18bf6a94f4380a5752e4078e6fenZGabzGpkAQPLvKa[] = {
/* columns rows colors chars-per-pixel */
"320 32 26 1 ",
"  c black",
". c black",
"X c None",
"o c black",
"O c #5E724A",
"+ c #5B3C2C",
"@ c #512D23",
"# c #677755",
"$ c #70805F",
"% c #BEC49F",
"& c #8DAB5F",
"* c #453A35",
"= c #3C312C",
"- c #A2A97F",
"; c #7A2D18",
": c #778667",
"> c #342A25",
", c #6A7A5A",
"< c #2D2420",
"1 c #645C3F",
"2 c #5A5237",
"3 c #60583C",
"4 c #4A413C",
"5 c #70694F",
"6 c #695D58",
"7 c white",
/* pixels */
"                                                                                                                                                                                                                                                                                                                                ",
"                                                                                                                                                                                                                                                                                                                                ",
"                                                                                                                                                                                                                                                                                                                                ",
"                                                                                                                                                                                                                                                                                                                                ",
"                                                                                                                                                                                                                                                                                                                                ",
"               ooooo                           ooooo                                                                                                                             ooooo                           ooooo                                                                                                          ",
"              oO+@@@o                         oO+@@@o                           ooooo                                                           ooooo                           oO+@@@o                         oO+@@@o                           ooooo                                                         ooooo           ",
"             o@++@@+Oo                       o@++@@+Oo                         oO+@@@o                          ooooo                          oO+@@@o                         o@++@@+Oo                       o@++@@+Oo                         oO+@@@o                          ooooo                        oO+@@@o          ",
"            o@@+O+@+OOo                     o@@+O+@+OOo                       o@++@@+Oo                        oO+@@@o                        o@++@@+Oo                       o@@+O+@+OOo                     o@@+O+@+OOo                       o@++@@+Oo                        oO+@@@o                      o@++@@+Oo         ",
"            o@+OO++#OOo                     o@+OO++#OOo                      o@@+O+@+OOo                      o@++@@+Oo                      o@@+O+@+OOo                      o@+OO++#OOo                     o@+OO++#OOo                      o@@+O+@+OOo                      o@++@@+Oo                    o@@+O+@+OOo        ",
"            o+O##$+$#Oo                     o+O##$+$#Oo                      o@+OO++#OOo                     o@@+O+@+OOo                     o@+OO++#OOo                      o+O##$+$#Oo                     o+O##$+$#Oo                      o@+OO++#OOo                     o@@+O+@+OOo                   o@+OO++#OOo        ",
"            oO#$$$+$$#o                     oO#$$$+$$#o                      o+O##$+$#Oo                     o@+OO++#OOo                     o+O##$+$#Oo                      oO#$$$+$$#o                     oO#$$$+$$#o                      o+O##$+$#Oo                     o@+OO++#OOo                   o+O##$+$#Oo        ",
"            oO$ooo$+ooo                     oO$ooo$+ooo                      oO#$$$+$$#o                     o+O##$+$#Oo                     oO#$$$+$$#o                      oO$ooo$+ooo                     oO$ooo$+ooo                      oO#$$$+$$#o                     o+O##$+$#Oo                   oO#$$$+$$#o        ",
"             o$$%&$+&%o                      o$$%&$+&%o                      oO$ooo$+ooo                     oO#$$$+$$#o                     oO$ooo$+ooo                       o$$%&$+&%o                      o$$%&$+&%o                      oO$ooo$+ooo                     oO#$$$+$$#o                   oO$ooo$+ooo        ",
"             o$$$$$+$#o                      o$$$$$+$#o                       o$$%&$+&%o                     oO$ooo$+ooo                      o$$%&$+&%o                       o$$$$$+$#o                      o$$$$$+$#o                       o$$%&$+&%o                     oO$ooo$+ooo                    o$$%&$+&%o        ",
"             oO$$$$$+#o                      oO$$$$$+#o                       o$$$$$+$#o                      o$$%&$+&%o                     oo$$$$$+$#o                       oO$$$$$+#o                      oO$$$$$+#o                       o$$$$$+$#o                      o$$%&$+&%o                   oo$$$$$+$#o        ",
"            o*=O-$-$-+o                     o*=O-$-$-+o                      ooO$$$$$+#o                     oo$$$$$+$#o                    o*=O$$$$$+#o                      o*=O-$-$-+o                     o*=O-$-$-+o                      ooO$$$$$+#o                     oo$$$$$+$#o                  o*=O$$$$$+#o        ",
"           o@*==O-;-;o                     o@*==O-;-;o                      o*==O-$-$-+o                    o*=O$$$$$+#o                    o**=O-$-$-+o                     o*@==O-;-;o                     o@@==O-;-;o                      o*==O-$-$-+o                    o*=O$$$$$+#o                  o**=O-$-$-+o        ",
"           o@@===O;;=o                     o@@===O;;=o                     o@*===O-;-;o                    o@*==O-$-$-+o                    o@*==O-;-;o                      o*@===O;;=o                     o:@*==O;;=o                     o@@===O-;-;o                    o*@==O-$-$-+o                  o@*==O-;-;o         ",
"           o:@======*o                     o:@======*o                     o@@====O;;o                     o@@===O-;-;o                     o@@===O;;*o                       o:@=====*o                      o:*=====*o                     o:@*===O;;o                     o*@===O-;-;o                   o@@===O;;*o         ",
"           o*:====;=*o                     o*:====;=*o                     o:@======*o                     o:@====O;;o                      o:@====$=*o                       o*:===$=*o                      o**===$=**o                     o:*=====*o                      o:@===O;;o                    o:@====$=*o         ",
"           o**>>>,,**o                    o**>>>>,,*o                      o*:====$=*o                     o*:====$=*o                       o:*>>,,o**o                      o**>>,,o**o                     o**>>,,o**o                     o**===$=**o                     o*:===$=*o                     o:*>>,,o**o        ",
"           o**>>>,o**o                    o**>>>>,**o                     o**>>>>,>*o                      o**>>>,>**o                       o**>>,oo**o                      o**>>,oo**o                     o>**>,o o**o                    o**>>,>o**o                     o**>>,>o**o                    o**>>,oo**o        ",
"           o**>>>>o**o                    o**><<<<**o                     o**><<<<;*o                      o**<<<<;**o                       o**<<<oo**o                      o>**>>o o**o                    o<::<<o o***o                   o>**<<o o**o                    o**<<<o **o                    o**<<<oo**o        ",
"           o::11111::o                    o::11111::o                     o**11111**o                      o**11111**o                      o2**1111o**o                     o21::331oo::o                   o2111331o o::o                 oo11::331oo***o                  o11**111oo**o                  o3**1331o**o        ",
"           o2111211oo                      o2111211o                      o::11121::o                      o::11211::o                      o2::1211o::o                     o2111231o oo                    o2113231o  oo                 o441113231o o::o                  o11::231oo::o                  o3::3231o::o        ",
"            o255515o                       oO255515o                      oOO255515o                       oO255515oo                        o255515ooo                       o555231o                      o44555231o                     o6o2555231o  oo                  o64555231o oo                    o555231ooo         ",
"             o2112o                        oOo211oo                       oOoo211oo                        oOo211oo                           o211;o                         o442o;311o                     o6o22oo311o                     o ooooo311o                     o6o22oo311o                     o422oo311o          ",
"              o44o                          o o44o                         o  o44o                          o o44o                             o44o                          o6oo  o,$o                      o oo  o,$o                            o,$o                      o oo; ;,$o                     o6oo ;o;$o          ",
"              o466o                           o466o                           o466o                           o466o                            o466o                          o    o,::o                          ;o,::o                          ;o,::o                           o,::o                     o    o,::o         ",
"           ...XXXXX....                   .XXXXXXXX....                   XXXXXXXXX.....                   XXXXXXXX.....                    ...XXXXX....                     XXXX..XXXXX..                  XXX....XXXXX...                XXX.....XXXXX...                 XXX....XXXXX..                  XXX...XXXXX.        ",
"            ..........                     ...........                     ............                     ...........                      ..........                       ...........                    .............                  ..............                   ............                    ..........         "
};
