/* XPM */
static char *_9e3f4f210764ecdbad42c5d691f0d62ezstwO6ERs9eQCvA[] = {
/* columns rows colors chars-per-pixel */
"320 32 26 1 ",
"  c black",
". c black",
"X c None",
"o c black",
"O c #5B3C2C",
"+ c #512D23",
"@ c #5E724A",
"# c #677755",
"$ c #70805F",
"% c #778667",
"& c #342A25",
"* c #302723",
"= c #2D2420",
"- c #3C312C",
"; c #6A7A5A",
": c #453A35",
"> c #748363",
", c #667556",
"< c #645C3F",
"1 c #70694F",
"2 c #5A5237",
"3 c #6D625D",
"4 c #695D58",
"5 c #7A2D18",
"6 c #4A413C",
"7 c white",
/* pixels */
"                                                                                                                                                                                                                                                                                                                                ",
"                                                                                                                                                                                                                                                                                                                                ",
"                                                                                                                                                                                                                                                                                                                                ",
"                                                                                                                                                                                                                                                                                                                                ",
"                                                                                                                                                                                                                                                                                                                                ",
"             ooooo                           ooooo                                                                                                                         ooooo                           ooooo                                                                                                                ",
"            oO++++o                         oO++++o                          ooooo                                                          ooooo                         oO++++o                         oO++++o                          ooooo                                                            ooooo               ",
"           o@@O+O@@o                       o@@O+O@@o                        oO++++o                          ooooo                         oO++++o                       o@@O+O@@o                       o@@O+O@@o                        oO++++o                          ooooo                           oO++++o              ",
"          o@@@OO@@@@o                     o@@@OO@@@@o                      o@@O+O@@o                        oO++++o                       o@@O+O@@o                     o@@@OO@@@@o                     o@@@OO@@@@o                      o@@O+O@@o                        oO++++o                         o@@O+O@@o             ",
"          o@@@O##@@@o                     o@@@O##@@@o                     o@@@OO@@@@o                      o@@O+O@@o                     o@@@OO@@@@o                    o@@@O##@@@o                     o@@@O##@@@o                     o@@@OO@@@@o                      o@@O+O@@o                       o@@@OO@@@@o            ",
"          o@@#O$$#@@o                     o@@#O$$#@@o                     o@@@O##@@@o                     o@@@OO@@@@o                    o@@@O##@@@o                    o@@#O$$#@@o                     o@@#O$$#@@o                     o@@@O##@@@o                     o@@@OO@@@@o                      o@@@O##@@@o            ",
"          o@#$O$$$#@o                     o@#$O$$$#@o                     o@@#O$$#@@o                     o@@@O##@@@o                    o@@#O$$#@@o                    o@#$O$$$#@o                     o@#$O$$$#@o                     o@@#O$$#@@o                     o@@@O##@@@o                      o@@#O$$#@@o            ",
"          o#$O$$$$$#o                     o#$O$$$$$#o                     o@#$O$$$#@o                     o@@#O$$#@@o                    o@#$O$$$#@o                    o#$O$$$$$#o                     o#$O$$$$$#o                     o@#$O$$$#@o                     o@@#O$$#@@o                      o@#$O$$$#@o            ",
"          o#O$%%%$$#o                     o#O$%%%$$#o                     o#$O$$$$$#o                     o@#$O$$$#@o                    o#$O%%%$$#o                    o#O$%%%$$#o                     o#O$%%%$$#o                     o#$O$$$$$#o                     o@#$O$$$#@o                      o#$O%%%$$#o            ",
"          o#O$%%%$$#o                     o#O$%%%$$#o                     o#O$%%%$$#o                     o#$O%%%$$#o                    o#O$%%%$$#o                    o#O$%%%$$#o                     o#O$%%%$$#o                     o#O$%%%$$#o                     o#$O%%%$$#o                      o#O$%%%$$#o            ",
"          o@O$&&&$#@o                     o@O$&&&$#@o                     o#O$%%%$$#o                     o#O$%%%$$#o                    o#O$&&&$$#o                    o@O$&&&$#@o                     o@O$&&&$#@o                     o#O$%%%$$#o                     o#O$%%%$$#o                      o#O$&&&$$#o            ",
"          o&&&&&&&&&o                     o&&&&&&&&&o                     o@O$&&&$#@o                     o#O$&&&$$#o                    o&&&&&&&&&o                    o&&&&&&&&&o                     o&&&&&&&&&o                     o@O$&&&$#@o                     o#O$&&&$$#o                      o&&&&&&&&&o            ",
"          o&&&&&&&&&o                     o&&&&&&&&&o                     o&&&&&&&&&o                     o&&&&&&&&&o                    o&&&&&&&&&o                    o&&&&&&&&&o                     o&&&&&&&&&o                     o&&&&&&&&&o                     o&&&&&&&&&o                      o&&&&&&&&&o            ",
"          o&&&&&&&&&o                     o&&&&&&&&&*o                    o&&&&&&&&&o                     o&&&&&&&&&o                    o&&&&&&&&&o                    o&&&&&&&&&o                    o*&&&&&&&&&o                     o&&&&&&&&&o                     o&&&&&&&&&o                      o&&&&&&&&&o            ",
"          o*&&&&&&&*o                     o*&&&&&&&**o                    o&&&&&&&&&=o                    o&&&&&&&&&o                    o=&&&&&&&=o                    o*&&&&&&&*o                    o**&&&&&&&*o                    o=&&&&&&&&&o                     o&&&&&&&&&o                      o=&&&&&&&=o            ",
"          o*=&&&&&=*o                     o*=&&&&&=**o                    o=&&&&&&&==o                    o=&&&&&&&=o                    o==&&&&&==o                    o*=&&&&&=*o                    o**=&&&&&=*o                    o==&&&&&&&=o                     o=&&&&&&&=o                      o==&&&&&==o            ",
"          o**---$-o**o                     o*---$-oo*o                    o==&&&;&===o                    o==&&&;&==o                    o==---$-==o                   o**o---$-**o                    o*oo---$-*o                     o===&&&;&==o                     o==&&&;&==o                      o==---$-==o            ",
"          o**--$--o**o                     o*--$--oo**o                    o=--$--oo=o                    o==--$--o==o                   o==--$--==o                   o**o--$--**o                   o**oo--$--*o                     o=oo--$--=o                     o==o--$--==o                      o==--$--==o            ",
"          o**:>>>:o**o                     o*:%%%:oo**o                    o=:%%%:oo==o                   o==:%%%:o==o                   o==:%%%:==o                   o**o:>>>:**o                   o**oo:%%%:*o                    o==oo:%%%:=o                     o==o:%%%:==o                      o==:%%%:==o            ",
"          o,<<<<<<<,,o                     o<<<<<<<o,,o                    o<<<<<<<o==o                   o=<<<<<<<==o                   o=<<<<<<<=o                   o,,<11111<,o                   o,,o<<<<<<<o                    o==o<<<<<<<o                     o==<<<<<<<=o                      o=<<<<<<<=o            ",
"           o<<<2<<<oo                      o<<<2<<<ooo                     o%%<2<<<o,,o                   o,<<<2<<<,,o                   o,<<<2<<<,o                    oo<11111<o                     ooo<<<2<<<o                    o,,o<<<2<33o                     o,,<<<2<<<,o                      o,<<<2<<<,o            ",
"           o<22o22<o                       o%%2o22<o                       o%%2o22<ooo                     o%%2o22<oo                     o<22o22<o                      o<<<o<<<o                       o<22o244o                     ooo<22o233o                      oo<22o244o                        o<22o22<o             ",
"           o%%o o<<o                       o%%o o<<o                        ooo o<<o                       o%%o o<<o                      o%%oo5<<o                      o<<o o44o                       o<<o o44o                       o<<o ooo                        o<<o o44o                        o<<o o44o             ",
"           o%%o o66o                        oo  o66o                            o66o                        oo  o66o                      o%%o o66o                      o;;o o44o                       o;;o  oo                        o;;o                            o;;o 5o5                         o;;o5o44o             ",
"            oo  o44o                            o44o                            o44o                            o44o                       oo  o44o                      o%%o  oo                        o%%o  5                         o%%o  5                         o%%o                             o%%o  oo              ",
"          .XXXX.XXXX..                    .XXXX.XXXX..                    .XXXX.XXXX...                   .XXXX.XXXX..                   .XXXX.XXXX.                   ..XXXX.XXXX.                   ...XXXX.XXXX.                   ...XXXX.XXXX.                    ..XXXX.XXXX.                      .XXXX.XXXX.            ",
"           ..........                      ..........                      ...........                     ..........                     .........                     ..........                     ...........                     ...........                      ..........                        .........             "
};
