/* XPM */
static char *result[] = {
/* columns rows colors chars-per-pixel */
"128 32 19 1 ",
"  c #0C0A07",
". c #291A18",
"X c #362623",
"o c #3A2B28",
"O c #4C342F",
"+ c #553D39",
"@ c #4C403D",
"# c #554C3C",
"$ c #425059",
"% c #634A45",
"& c #57636B",
"* c #6E7D61",
"= c #B56A68",
"- c #87947C",
"; c #C0AC98",
": c #D2A394",
"> c #E4B5A5",
", c #DBCBBC",
"< c #0C1317",
/* pixels */
"<<<<<<<<<<<<<<<<<<<<<<<<<<<<<<<<<<<<<<<<<<<<<<<<<<<<<<<<<<<<<<<<<<<<<<<<<<<<<<<<<<<<<<<<<<<<<<<<<<<<<<<<<<<<<<<<<<<<<<<<<<<<<<<<",
"<<<<<<<<<<<<<<<<<<<<<<<<<<<<<<<<<<<<<<<<<<<<<<<<<<<<<<<<<<<<<<<<<<<<<<<<<<<<<<<<<<<<<<<<<<<<<<<<<<<<<<<<<<<<<<<<<<<<<<<<<<<<<<<<",
"<<<<<<<<<<<<<<<<<<<<<<<<<<<<<<<<<<<<<<<<<<<<<<<<<<<<<<<<<<<<<<<<<<<<<<<<<<<<<<<<<<<<<<<<<<<<<<<<<<<<<<<<<<<<<<<<<<<<<<<<<<<<<<<<",
"<<<<<<<<<<<<<<<<<<<<<<<<<<<<<<<<<<<<<<<<<<<<<<<<<<<<<<<<<<<<<<<<<<<<<<<<<<<<<<<<<<<<<<<<<<<<<<<<<<<<<<<<<<<<<<<<<<<<<<<<<<<<<<<<",
"<<<<<<<<<<<<<<<<<<<<<<<<<<<<<<<<<<<<<<<<<<<<<<  << <<<<<<<<<<<<<<<<<<<<<<<<<<<<<<<<<<<<<<<<<<<<<<<<<<<<<<<<<<<  << <<<<<<<<<<<<<",
"<<<<<<<<<<<<<<  << <<<<<<<<<<<<<<<<<<<<<<<<   OO  O <<<<<<<<<<<<<<<<<<<<<<<<<<  << <<<<<<<<<<<<<<<<<<<<<<<<   OO  O <<<<<<<<<<<<",
"<<<<<<<<<<<   OO  O <<<<<<<<<<<<<<<<<<<<<< OOO%%OO%O <<<<<<<<<<<<<<<<<<<<<<   OO  O <<<<<<<<<<<<<<<<<<<<<< OOO%%OO%O <<<<<<<<<<<",
"<<<<<<<<<< OOO%%OO%O <<<<<<<<<<<<<<<<<<<<<< %%%%%%%%% <<<<<<<<<<<<<<<<<<<< OOO%%OO%O <<<<<<<<<<<<<<<<<<<<<< %%%%%%%%% <<<<<<<<<<",
"<<<<<<<<<<< %%%%%%%%% <<<<<<<<<<<<<<<<<<<< %%%%%%%%%%O <<<<<<<<<<<<<<<<<<<< %%%%%%%%% <<<<<<<<<<<<<<<<<<<< %%%%%%%%%%O <<<<<<<<<",
"<<<<<<<<<< %%%%%%%%%%O <<<<<<<<<<<<<<<<<<< %%%OO%O%%%OO <<<<<<<<<<<<<<<<<< %%%%%%%%%%O <<<<<<<<<<<<<<<<<<< %%%OO%O%%%OO <<<<<<<<",
"<<<<<<<<<< %%%OO%O%%%OO <<<<<<<<<<<<<<<<< OO%%:O%:%%%% <<<<<<<<<<<<<<<<<<< %%%OO%O%%%OO <<<<<<<<<<<<<<<<< OO%%:O%:%%%% <<<<<<<<<",
"<<<<<<<<< OO%%:O%:%%%% <<<<<<<<<<<<<<<<<<< O%:::%::%%% <<<<<<<<<<<<<<<<<< OO%%:O%:%%%% <<<<<<<<<<<<<<<<<<< O%:::%::%%% <<<<<<<<<",
"<<<<<<<<<< O%:::%::%%% <<<<<<<<<<<<<<<<<<< %%: >:> :O%% <<<<<<<<<<<<<<<<<< O%:::%::%%% <<<<<<<<<<<<<<<<<<< %%: >:> :O%% <<<<<<<<",
"<<<<<<<<<< %%: >:> :O%% <<<<<<<<<<<<<<<<< +%=:.>>>.:=+ <<<<<<<<<<<<<<<<<<< %%: >:> :O%% <<<<<<<<<<<<<<<<< +%=:.>>>.:=+ <<<<<<<<<",
"<<<<<<<<< +%=:.>>>.:=+ <<<<<<<<<<<<<<<<<<< ++:>>>>>:++ <<<<<<<<<<<<<<<<<< +%=:.>>>.:=+ <<<<<<<<<<<<<<<<<<< ++:>>>>>:++ <<<<<<<<<",
"<<<<<<<<<< ++:>>>>>:++ <<<<<<<<<<<<<<<<<<<< ++:>>>:++ <<<<<<<<<<<<<<<<<<<< ++:>>>>>:++ <<<<<<<<<<<<<<<<<<<< ++:>>>:++ <<<<<<<<<<",
"<<<<<<<<<<< ++:>>>:++ <<<<<<<<<<<<<<<<<<<<<< + ::: + <<<<<<<<<<<<<<<<<<<<<< ++:>>>:++ <<<<<<<<<<<<<<<<<<<<<< + ::: + <<<<<<<<<<<",
"<<<<<<<<<<<< + ::: + <<<<<<<<<<<<<<<<<<<<<< o*o;;;o*o <<<<<<<<<<<<<<<<<<<<<< + ::: + <<<<<<<<<<<<<<<<<<<<<< o*o;;;o*o <<<<<<<<<<",
"<<<<<<<<<<<< *o;;;o* <<<<<<<<<<<<<<<<<<<<<< o*@,,;@*o <<<<<<<<<<<<<<<<<<<<<< *o;;;o* <<<<<<<<<<<<<<<<<<<<<< o*@,,;@*o <<<<<<<<<<",
"<<<<<<<<<<<< *@,,;@* <<<<<<<<<<<<<<<<<<<<< oo-@,,,@-oo <<<<<<<<<<<<<<<<<<<<< *@,,;@* <<<<<<<<<<<<<<<<<<<<< oo-@,,,@-oo <<<<<<<<<",
"<<<<<<<<<<< o-@,,,@-o <<<<<<<<<<<<<<<<<<<< @o*@;,,@*o@ <<<<<<<<<<<<<<<<<<<< o-@,,,@-o <<<<<<<<<<<<<<<<<<<< @o*@;,,@*o@ <<<<<<<<<",
"<<<<<<<<<<< @*@;,,@*o <<<<<<<<<<<<<<<<<<< @@ o@,;,@o @@ <<<<<<<<<<<<<<<<<<< o*@;,,@*@ <<<<<<<<<<<<<<<<<<< @@ o@,;,@o @@ <<<<<<<<",
"<<<<<<<<<< @@o@,;,@o @ <<<<<<<<<<<<<<<<<< >: oo$$$oo :> <<<<<<<<<<<<<<<<<< @ o@,;,@o@@ <<<<<<<<<<<<<<<<<< >: oo$$$oo :> <<<<<<<<",
"<<<<<<<<<< >>oo$$$oo : <<<<<<<<<<<<<<<<<<<   $$$$$$$   <<<<<<<<<<<<<<<<<<< : oo$$$oo>> <<<<<<<<<<<<<<<<<<<   $$$$$$$   <<<<<<<<<",
"<<<<<<<<<<<  $&&&&&$  <<<<<<<<<<<<<<<<<<<<<< $&&&&&$ <<<<<<<<<<<<<<<<<<<<<<  $&&&&&$  <<<<<<<<<<<<<<<<<<<<<< $&&&&&$ <<<<<<<<<<<",
"<<<<<<<<<<<< $&&$&&$ <<<<<<<<<<<<<<<<<<<<<<< $&&$&&$ <<<<<<<<<<<<<<<<<<<<<<< $&&$&&$ <<<<<<<<<<<<<<<<<<<<<<< $&&$&&$ <<<<<<<<<<<",
"<<<<<<<<<<<< &&$ $&$ <<<<<<<<<<<<<<<<<<<<<<< $&$ $&$ <<<<<<<<<<<<<<<<<<<<<<< $&$ $&& <<<<<<<<<<<<<<<<<<<<<<< $&$ $&$ <<<<<<<<<<<",
"<<<<<<<<<<<< ## < $$ <<<<<<<<<<<<<<<<<<<<<<< $$ < $$ <<<<<<<<<<<<<<<<<<<<<<< $$ < ## <<<<<<<<<<<<<<<<<<<<<<< $$ < $$ <<<<<<<<<<<",
"<<<<<<<<<<<<<  << XX <<<<<<<<<<<<<<<<<<<<<<< ## < XX <<<<<<<<<<<<<<<<<<<<<<< XX <<  <<<<<<<<<<<<<<<<<<<<<<<< XX < ## <<<<<<<<<<<",
"<<<<<<<<<<<<<<<<< ## <<<<<<<<<<<<<<<<<<<<<<<<  << ## <<<<<<<<<<<<<<<<<<<<<<< ## <<<<<<<<<<<<<<<<<<<<<<<<<<<< ## <<  <<<<<<<<<<<<",
"<<<<<<<<<<<<<  <<<  <<<<<<<<<<<<<<<<<<<<<<<<<  <<<  <<<<<<<<<<<<<<<<<<<<<<<<<  <<<  <<<<<<<<<<<<<<<<<<<<<<<<<  <<<  <<<<<<<<<<<<",
"<<<<<<<<<<<<<<<<<<<<<<<<<<<<<<<<<<<<<<<<<<<<<<<<<<<<<<<<<<<<<<<<<<<<<<<<<<<<<<<<<<<<<<<<<<<<<<<<<<<<<<<<<<<<<<<<<<<<<<<<<<<<<<<<"
};
