/* XPM */
static char *_1212e38a22e4bc5b50105a3ef1b785eHvsZxEKpQAuAuAH7[] = {
/* columns rows colors chars-per-pixel */
"320 32 26 1 ",
"  c black",
". c black",
"X c None",
"o c black",
"O c #5B3C2C",
"+ c #512D23",
"@ c #5E724A",
"# c #677755",
"$ c #70805F",
"% c #BEC49F",
"& c #8DAB5F",
"* c #A2A97F",
"= c #3C312C",
"- c #453A35",
"; c #7A2D18",
": c #778667",
"> c #342A25",
", c #6A7A5A",
"< c #2D2420",
"1 c #645C3F",
"2 c #5A5237",
"3 c #60583C",
"4 c #70694F",
"5 c #4A413C",
"6 c #695D58",
"7 c white",
/* pixels */
"                                                                                                                                                                                                                                                                                                                                ",
"                                                                                                                                                                                                                                                                                                                                ",
"                                                                                                                                                                                                                                                                                                                                ",
"                                                                                                                                                                                                                                                                                                                                ",
"                                                                                                                                                                                                                                                                                                                                ",
"            ooooo                           ooooo                                                                                                                         ooooo                           ooooo                                                                                                                 ",
"           oO++OOo                         oO++OOo                         ooooo                                                           ooooo                         oO++OOo                         oO++OOo                         ooooo                                                             ooooo                ",
"          oOO++O@@o                       oOO++O@@o                       oO++OOo                          ooooo                          oO++OOo                       oOO++O@@o                       oOO++O@@o                       oO++OOo                          ooooo                            oO++OOo               ",
"         oO@O+O@@@@o                     oO@O+O@@@@o                     oOO++O@@o                        oO++OOo                        oOO++O@@o                     oO@O+O@@@@o                     oO@O+O@@@@o                     oOO++O@@o                        oO++OOo                          oOO++O@@o              ",
"         o@@OO#@@@@o                     o@@OO#@@@@o                    oO@O+O@@@@o                      oOO++O@@o                      oO@O+O@@@@o                    o@@OO#@@@@o                     o@@OO#@@@@o                    oO@O+O@@@@o                      oOO++O@@o                        oO@O+O@@@@o             ",
"         o@#O$$##@@o                     o@#O$$##@@o                    o@@OO#@@@@o                     oO@O+O@@@@o                     o@@OO#@@@@o                    o@#O$$##@@o                     o@#O$$##@@o                    o@@OO#@@@@o                     oO@O+O@@@@o                       o@@OO#@@@@o             ",
"         o#$O$$$$#@o                     o#$O$$$$#@o                    o@#O$$##@@o                     o@@OO#@@@@o                     o@#O$$##@@o                    o#$O$$$$#@o                     o#$O$$$$#@o                    o@#O$$##@@o                     o@@OO#@@@@o                       o@#O$$##@@o             ",
"         ooo$Oooo$@o                     ooo$Oooo$@o                    o#$O$$$$#@o                     o@#O$$##@@o                     o#$O$$$$#@o                    ooo$Oooo$@o                     ooo$Oooo$@o                    o#$O$$$$#@o                     o@#O$$##@@o                       o#$O$$$$#@o             ",
"         o%&$O&%$$o                      o%&$O&%$$o                     ooo$Oooo$@o                     o#$O$$$$#@o                     ooo$Oooo$@o                    o%&$O&%$$o                      o%&$O&%$$o                     ooo$Oooo$@o                     o#$O$$$$#@o                       ooo$Oooo$@o             ",
"         o#$$O$$$$o                      o#$$O$$$$o                     o%&$O&%$$o                      ooo$Oooo$@o                     o%&$O&%$$o                     o#$$O$$$$o                      o#$$O$$$$o                     o%&$O&%$$o                      ooo$Oooo$@o                       o%&$O&%$$o              ",
"         o#$$$OO$@o                      o#$$$OO$@o                     o#$$O$$$$o                      o%&$O&%$$o                      o#$$O$$$$oo                    o#$$$OO$@o                      o#$$$OO$@o                     o#$$O$$$$o                      o%&$O&%$$o                        o#$$O$$$$oo             ",
"         o@*$*$*O=-o                     o@*$*$*O=-o                    o#$$$OO$@oo                     o#$$O$$$$oo                     o#$$$OO$@=-o                   o@*$*$*O=-o                     o@*$*$*O=-o                    o#$$$OO$@oo                     o#$$O$$$$oo                       o#$$$OO$@=-o            ",
"          o@*;*;==--o                     o@*;*;==--o                   o@*$*$*O==-o                    o#$$$OO$@=-o                    o@*$*$*O=--o                    o@*;*;==--o                     o@*;*;==--o                   o@*$*$*O==-o                    o#$$$OO$@=-o                      o@*$*$*O=--o            ",
"          o=@;;===--o                     o=@;;===--o                    o@*;*;===--o                   o@*$*$*O==--o                    o@*;*;==--o                    o=@;;===--o                     o=@;;==---o                    o@*;*;===--o                   o@*$*$*O==--o                      o@*;*;==--o            ",
"          o:======--o                     o:======--o                     o@;;====--o                    o@*;*;===--o                    o+@;;===--o                    o+=====--o                      o+=====--o                      o@;;===---o                    o@*;*;===--o                      o-@;;===--o            ",
"          o-=;===$--o                     o-=;===$--o                     o:======--o                     o@;;====--o                    o+======--o                    o:=====--o                     o-:=====--o                      o+=====--o                      o@;;===--o                       o+=====$--o            ",
"          o-->>>,,--o                      o->>>,,>--o                    o-=====$--o                     o-=====$--o                   o-:o>>>,--o                    o--o>>>,--o                     o--o>>>,--o                     o-:=====--o                      o:=====--o                      o-:o>>>,--o             ",
"          o--o>>,>--o                      o-->>,>>--o                     o->>>,>>--o                    o-->>>,>--o                   o--oo>>,--o                    o--oo>>,--o                    o--o o>>-->o                     o--o>>>,--o                     o--o>>>,--o                      o--oo>>,--o             ",
"          o--o>>>>--o                      o--<<<<>--o                     o-;<<<<>--o                    o--;<<<<--o                   o--oo<<<--o                   o--o o>>-->o                   o---o o<<::<o                    o--o o<<-->o                     o-- o<<<--o                      o--oo<<<--o             ",
"          o::11111::o                      o::11111::o                     o--11111--o                    o--11111--o                   o--o1111--2o                  o::oo133::12o                  o::o o1331112o                  o---oo133::11oo                  o--oo111--11o                     o--o1331--3o            ",
"           oo1121112o                       o1121112o                      o::12111::o                    o::11211::o                   o::o1121::2o                   oo o1321112o                   oo  o1323112o                  o::o o1323111@,o                 o::oo132::11o                     o::o1323::3o            ",
"            o414442o                        o4144425o                       o41444255o                     oo4144425o                    ooo414442o                       o132444o                        o132444@,o                  oo  o1324442o,o                  oo o132444@,o                     ooo132444o             ",
"             o2112o                          oo112o6o                        oo112oo6o                       oo112o6o                       o;112o                       o113;o2@,o                      o113oo22o,o                     o113ooooo o                     o113oo22o,o                      o113oo22,o            ",
"              o,,o                            o,,o o                          o,,o  o                         o,,o o                         o,,o                        o55o  oo:o                      o55o  oo o                      o55o                            o55; ;oo o                       o5;o; oo:o            ",
"             o::,o                           o::,o                           o::,o                           o::,o                          o::,o                       o665o    o                      o665o;                          o665o;                          o665o                            o665o    o             ",
"         ....XXXXX...                    ....XXXXXXXX.                  .....XXXXXXXXX                  .....XXXXXXXX                   ....XXXXX...                  ..XXXXX..XXXX                  ...XXXXX....XXX                 ...XXXXX.....XXX                 ..XXXXX....XXX                    .XXXXX...XXX            ",
"          ..........                      ...........                    ............                    ...........                     ..........                    ...........                    .............                   ..............                   ............                      ..........             "
};
