/* XPM */
static char *result[] = {
/* columns rows colors chars-per-pixel */
"128 32 21 1 ",
"  c #0C0A07",
". c #291A18",
"X c #342523",
"o c #362623",
"O c #3A2B28",
"+ c #4C342F",
"@ c #553D39",
"# c #4C403D",
"$ c #554C3C",
"% c #425059",
"& c #634A45",
"* c #657358",
"= c #57636B",
"- c #6E7D61",
"; c #B56A68",
": c #87947C",
"> c #C0AC98",
", c #D2A394",
"< c #E4B5A5",
"1 c #DBCBBC",
"2 c #0C1317",
/* pixels */
"22222222222222222222222222222222222222222222222222222222222222222222222222222222222222222222222222222222222222222222222222222222",
"22222222222222222222222222222222222222222222222222222222222222222222222222222222222222222222222222222222222222222222222222222222",
"22222222222222222222222222222222222222222222222222222222222222222222222222222222222222222222222222222222222222222222222222222222",
"22222222222222222222222222222222222222222222222222222222222222222222222222222222222222222222222222222222222222222222222222222222",
"22222222222222222222222222222222222222222222222 2  222222222222222222222222222222222222222222222222222222222222 2  2222222222222",
"222222222222222 2  22222222222222222222222222  + ++  22222222222222222222222222 2  22222222222222222222222222  + ++  22222222222",
"2222222222222  + ++  22222222222222222222222 @&&+&&@+  2222222222222222222222  + ++  22222222222222222222222 @&&+&&@+  222222222",
"222222222222 @&&+&&@+  2222222222222222222222 &&&&&&&+@ 22222222222222222222 @&&+&&@+  2222222222222222222222 &&&&&&&+@ 22222222",
"2222222222222 &&&&&&&+@ 22222222222222222222 @&&&&&&&@@ 222222222222222222222 &&&&&&&+@ 22222222222222222222 @&&&&&&&@@ 22222222",
"222222222222 @&&&&&&&@@ 22222222222222222222 &++&&&&&&@ 22222222222222222222 @&&&&&&&@@ 22222222222222222222 &++&&&&&&@ 22222222",
"222222222222 &++&&&&&&@ 2222222222222222222 +&,+&+&&&@++ 2222222222222222222 &++&&&&&&@ 2222222222222222222 +&,+&+&&&@++ 2222222",
"22222222222 +&,+&+&&&@++ 2222222222222222222 &,,&,&&&&+ 2222222222222222222 +&,+&+&&&@++ 2222222222222222222 &,,&,&&&&+ 22222222",
"222222222222 &,,&,&&&&+ 22222222222222222222 , ,< ,&+&@@ 2222222222222222222 &,,&,&&&&+ 22222222222222222222 , ,< ,&+&@@ 2222222",
"222222222222 , ,< ,&+&@@ 222222222222222222 +,.<<.,,;&@ 22222222222222222222 , ,< ,&+&@@ 222222222222222222 +,.<<.,,;&@ 22222222",
"22222222222 +,.<<.,,;&@ 22222222222222222222 ,<<<<,,@@@ 2222222222222222222 +,.<<.,,;&@ 22222222222222222222 ,<<<<,,@@@ 22222222",
"222222222222 ,<<<<,,@@@ 222222222222222222222 ,<<<,@@@ 222222222222222222222 ,<<<<,,@@@ 222222222222222222222 ,<<<,@@@ 222222222",
"2222222222222 ,<<<,@@@ 22222222222222222222222 ,,, @@ 22222222222222222222222 ,<<<,@@@ 22222222222222222222222 ,,, @@ 2222222222",
"22222222222222 ,,, @@ 22222222222222222222222 O>>>O-O 222222222222222222222222 ,,, @@ 22222222222222222222222 O>>>O-O 2222222222",
"2222222222222 O>>>O-O 22222222222222222222222 O11>##O- 2222222222222222222222 O>>>O-O 22222222222222222222222 O11>##O- 222222222",
"2222222222222 O11>O#O- 2222222222222222222222 O111O#O- 2222222222222222222222 O11>#-O 22222222222222222222222 O111O#O- 222222222",
"2222222222222 O111###- 2222222222222222222222 O>11O#O- 222222222222222222222 #O111#:OO 2222222222222222222222 O>11O#O- 222222222",
"2222222222222 O>1O##-- 2222222222222222222222 O1>1O#O- 222222222222222222222 #O>11##-# 2222222222222222222222 O1>1O#O- 222222222",
"2222222222222 O1>##X*- 2222222222222222222222 O%%%O<<- 22222222222222222222 #OO1>1#O*## 222222222222222222222 O%%%O<<- 222222222",
"2222222222222 O%%<<X*- 2222222222222222222222 %%%%%%  222222222222222222222 <OO%%%OO*<, 222222222222222222222 %%%%%%  2222222222",
"2222222222222 ====%%  22222222222222222222222 ====%% 22222222222222222222222   ===%%   2222222222222222222222 ====%% 22222222222",
"222222222222 ===%==% 222222222222222222222222 ==%==% 2222222222222222222222222 = ==% 222222222222222222222222 ==%==% 22222222222",
"222222222222 ==% %== 222222222222222222222222 =% %== 2222222222222222222222222  ==% o 22222222222222222222222 =% %=% 22222222222",
"222222222222 %% 2  $$ 22222222222222222222222 %% %== 2222222222222222222222222 ==%  $ 22222222222222222222222 %% %=% 22222222222",
"222222222222 oo 222   22222222222222222222222 oo  $$ 2222222222222222222222222 oo% 2  22222222222222222222222 $$ ooo 22222222222",
"22222222222 $$o 2222222222222222222222222222 $$o 2  2222222222222222222222222 $$o 2222222222222222222222222222   $$$ 22222222222",
"222222222222   2222  222222222222222222222222   22  22222222222222222222222222   222 2222222222222222222222222  2   222222222222",
"22222222222222222222222222222222222222222222222222222222222222222222222222222222222222222222222222222222222222222222222222222222"
};
