/* XPM */
static char *_9717d9d1c0e4a3ee6d7221a7cceb6abPgs4uGfp0Yg6sIDH[] = {
/* columns rows colors chars-per-pixel */
"32 32 6 1 ",
"  c #0C1317",
". c #FCA89D",
"X c #A15C52",
"o c #1F324D",
"O c #CDD1EC",
"+ c white",
/* pixels */
"             ......             ",
"          ..X......o...         ",
"       .....XXXXXXXo.....       ",
"      o...XXXXXXXXXXXX...X      ",
"     .o.XXXXXXXXXXXXXXXX.X.     ",
"    ..oXXXXXXXXXXXXXXXXXXX..    ",
"   ..XXXXXXXoXXXXXXXXXXXXoX..   ",
"   .XXXXXXXXoXXXXXXXXXXXXoXX.   ",
"  ..XXXXXXXXoXXXXXXXXXXXXoXXX.  ",
"  .XXXXXXXXXoXXXXXXXXXXXXoXXX.  ",
"  .XXXoXXXXXoXXXXXXoXXXXXoXXX.  ",
"  .XXXoXXXXXoXXXXXXoXXXXXoXXX.  ",
"  .XXXoXXXXXXXXXXXXoXXXXXoXXX.  ",
"  .XXXoXXXXXXXXXXXXoXXXXXoXXX.  ",
"  .XXXoXXXXXXXXXXXXoXXXXXoXXX.  ",
"  .XXXXXXXXXXXXXXXXoXXXXXXXXX.  ",
"  .XXXXXXXXXoXXXXXXoXXXXXXXXX.  ",
"  XXXXXXXXXXoXXXXXXoXXXXXXXXXX  ",
"  XXXXXXXXXXoXXXXXXoXXXXXOOXXX  ",
"  XXXXXXXXXXoXXXXXXXXXXXOOOOXX  ",
"  XXXXXXXXXXoXXXXXXXXXXXOOOOXX  ",
"  XXXXoXXXXXXXXXXXXXXXXXoOOoXX  ",
"  XXXXoXXXXXXXXXXXXXXXXXXooXXX  ",
"  XXXXoXXXXXXXXXXXXXXXXXXXXXXX  ",
"  XXXXoXXXXXXXXXXXXoXXXXXoXXXX  ",
"  XXXXoXXXXXoXXXXXXoXXXXXoXXXX  ",
"  XXXXoXXXXXoXXXXXXoXXXXXoXXXX  ",
"  XXXXoXXXXXoXXXXXoXXXXXXoXXXX  ",
"  XXXXXXXXXXoXXXXoXXXXXXXoXXXX  ",
"  XXXXXXXXXXoXXXXXoXXXXXooXXXX  ",
"  XXXXXXXXXXoXXXXXooXXXXooXXXX  ",
"                                "
};
