/* XPM */
static char *caf162630b5449efa8491930516b97c6PlzjlOZ59a9cJOhm[] = {
/* columns rows colors chars-per-pixel */
"160 32 24 1 ",
"  c #0C1317",
". c #0C1317",
"X c #0C1317",
"o c #0C1317",
"O c #5B3C2C",
"+ c #512D23",
"@ c #5E724A",
"# c #677755",
"$ c #70805F",
"% c #BEC49F",
"& c #8DAB5F",
"* c #453A35",
"= c #A2A97F",
"- c #3C312C",
"; c #7A2D18",
": c #778667",
"> c #342A25",
", c #6A7A5A",
"< c #645C3F",
"1 c #5A5237",
"2 c #70694F",
"3 c #4A413C",
"4 c #695D58",
"5 c #0C1317",
/* pixels */
"                                                                                                                                                                ",
"                                                                                                                                                                ",
"                                                                                                                                                                ",
"                                                                                                                                                                ",
"                                                                                                                                                                ",
"                                                                              ooooo                                                                             ",
"                                              ooooo                          oO++++o                          ooooo                                             ",
"              ooooo                          oO++++o                        oO@O++O@o                        oO++++o                          ooooo             ",
"             oO++++o                        oO@O++O@o                      o+O@O+O@@@o                      oO@O++O@o                        oO++++o            ",
"            oO@O++O@o                      o+O@O+O@@@o                     o+O@OO#@@@o                     o+O@O+O@@@o                      oO@O++O@o           ",
"           o+O@O+O@@@o                     o+O@OO#@@@o                     oO@#O$$#@@o                     o+O@OO#@@@o                     o+O@O+O@@@o          ",
"           o+O@OO#@@@o                     oO@#O$$#@@o                     o@#$O$$$#@o                     oO@#O$$#@@o                     o+O@OO#@@@o          ",
"           oO@#O$$#@@o                     o@#$O$$$#@o                     o#oo$O$oo#o                     o@#$O$$$#@o                     oO@#O$$#@@o          ",
"           o@#$O$$$#@o                     o#oo$O$oo#o                     o#%&$O$&%#o                     o#oo$O$oo#o                     o@#$O$$$#@o          ",
"           o#oo$O$oo#o                     o#%&$O$&%#o                     o$$$$$O$$$o                     o#%&$O$&%#o                     o#oo$O$oo#o          ",
"           o#%&$O$&%#o                     o$$$$$O$$$o                     o@$$$$$O$@o                     o$$$$$O$$$o                     o#%&$O$&%#o          ",
"           o$$$$$O$$$o                     o@$$$$$O$@o                    o+*@=$=$=Oo                      o@$$$$$O$@o                     o$$$$$O$$$o          ",
"           o@$$$$$O$@o                    o+*@=$=$=Oo                    o++*-@=;=;-o                     o+*@=$=$=Oo                      o@$$$$$O$@o          ",
"          o+*@=$=$=Oo                    o++*-@=;=;-o                   o:+*---@;;-oo                    o++*-@=;=;-o                     o+*@=$=$=Oo           ",
"         o++*-@=;=;-o                   o:+*---@;;-o                    o*:o----$-***o                  o:+*---@;;-o                     o++*-@=;=;-o           ",
"        o:+*---@;;-o                    o*:o----$-*oo                   o*oo>>>,,**::o                  o*:o----$-*oo                   o:+*---@;;-o            ",
"        o*:o----$-*oo                   o**o>>>,,****o                 o**oo>>>,>oooo                   o**o>>>,,****o                  o*:o----$-*oo           ",
"        o**o>>>,;****o                  o**o>>>,>oo::o                 o**oo>>>>>o                      o**o>>>,>oo::o                  o**o>>>,>****o          ",
"        o**o>>>>>oo::o                 o**oo>>>>>o oo                 o**o o<<<<<<o                    o**oo>>>>>o oo                   o**o>>>>>oo::o          ",
"        o**o<<<<<<ooo                  o**oo<<<<<<o                   o::o o<<<1<<<o                   o**oo<<<<<<o                     o**o<<<<<<ooo           ",
"        o::o<<<1<<<o                   o::oo<<<1;<<o                   oo   o<<<1<<<o                  o::oo<<<1<<<o                    o::o<<<1<<<o            ",
"         oo o<<<1<<2o                   oo  o<<<1<<2o                       o<<<o1<2o                   oo  o<<<1<<2o                    oo o<<<1<<2o           ",
"           o222oo122o                      o222oo122o                      o222oo<22o                      o222oo122o                      o222oo122o           ",
"           o33o o$$o                       o33o o$$o                       o33o o$$o                       o33o;o;$o                       o33o o$$o            ",
"           o44o  oo                        o44o  oo                        o44o ;oo                        o44o  oo                        o44o  oo             ",
"        ...XXXX.XXXX..                  ...XXXX.XXXX..                  ...XXXX.XXXX..                  ...XXXX.XXXX..                  ...XXXX.XXXX..          ",
"         ............                    ............                    ............                    ............                    ............           "
};
