/* XPM */
static char *_5ccb71f48a14810b55c05706e2c3417V15Mnvye2g5jVfVz[] = {
/* columns rows colors chars-per-pixel */
"544 32 9 1 ",
"  c #0C1317",
". c #25131A",
"X c #676057",
"o c #9B534A",
"O c #6D758D",
"+ c #B3B2A1",
"@ c #B3B9D1",
"# c #DAE0EA",
"$ c #E6E6E6",
/* pixels */
"                                                                                                                                                                                                                                                                                                                                                                                                                                                                                                                                                                ",
"                                                                                                                                                                                                                                                                                                                                                                                                                                                                                                                                                                ",
"                                                                                                                                                                                                                                                                                                                                                                                                                                                                                                                                                                ",
"                                                                                                                                                                                                                                                                                                                                                                                                                                                                                                                                                                ",
"                                                                                                                                                                                                                                                                                                                                                                                                                                                                                                                                                                ",
"                                                                                                                                                                                                                                                                                                                                                                                                                                                                                                                                                                ",
"                                                                                                                                                                                                                                                                                                                                                                                                                                                                                                                                                                ",
"                                                                                                                                                                                                                                                                                                                                                                                                                                                                                                                                                                ",
"                                                                                                                                                                                                                                                                                                                                                                                                                                                                                                                                                                ",
"                                                                                                                                                                                                                                                                                                                                                                                                                                                                                                                                                                ",
"                                                                                                                                                                                                                                                                                                                                                                                                                                                                                                                                                                ",
"                                                                                                                                                                                                                                                                                                                                                                                                                                                                                                                                                                ",
"                                                                                                                                                                                                                                        ......                                                                                                                             ....                                                                                                                                                                                 ",
"                                                                                                         ....                             .......                          ......                         ......                       .+++$$X.                        ......                          ......                           ......                           ..$$++..                                                                                                                                                                               ",
"          ......                       .........                        ......                        ...+XXX.                           .X$$++++.                       ..+++$$X.                       .+++$$X.                     .X++++$+X.                      .+++$$X.                        .+++$$X.                         .+++$$X.                         .X$$..+..                                                                                                                                                                               ",
"         .X$$+++..                    .X$$++++++..                    ..+++$$X.                      .+++$$++X.                         .X+$$++++.                       .X+++$$+X.                     .X++++$+X.                    .X++++++X.                     .X++++$+X.                      .X++++$+X.                       .X++++$+X.                        .++$..+..                                  ....                                                                                                                                         ",
"        .X+$..+.X.                   .....X...XXX.                    .XX.......                     ..+..$++..                         ..++...X..                       ...+..++X.                     ..++++++X.                    .X++++++X.                     .X++++++..                      .X++++..X.                       .X+++..+..                       .X+++++$+X.                          ..   ..$+++..                                                                                                                                       ",
"        .X++..+.X.                   .....X...XXX.                    .XX.......                     ..+....+..                         ..++...X..                       ...+..++X.                     ..++++++X.                    .XX+++++X.                     .X++++++..                      .X++++..X.                       .X+++..+..                       .XXX+X+$...                          .@. .X$..+.X.                                                                                                                                       ",
"        .X++..+.X.                   .....X...XXX.                    .XX.......                     ..+..++X..                         ..++...X..                    .. .X++$+XX..                     .XX+++++..                     .XXXXXX.                      .XX+++++X.                      .XX+++++X.                       .XX+++++X.                        .X..X+$...                          .#@..+$..+.X.                                                                                                                                       ",
"        ...X+$++X.                   .XXX+$$$$+++.  ..                .++$$+XXX.......               .++$+X...   ..                       .X+$++X.                   .@#...+.$+..                        .XXXXXX.                       ......    ..                  .XXXXXX.                        .XXXXXX.                       ...XXX.XX.                       ...........                            .#OX++++$++X.                           ..                                                                                                         ",
"        ....+$.+.   ..                ....$$$$+... .@.               ....$$.... ..@@#.               .+.$+..    .@.                       ..+$.+X.                    ..#O..o...                          ......+.                     ......    .@.                  ....... ..                       ......                        .@.....XX.                       .@.........                             ...X+X+$.+..                          .@.                                 ....                                                                    ",
"       .O@@.....   .@.               .O@@...... ...@#.              .O@.o......o+@...                 .OO.......@#.                    .........                        ..+..o.O.                        ...@@O..o.                   .O@O.......@#.                  .O......@.                        ...@..                       .#.......                        .#@...Xo.O@.                             ..X.X+$.+..                       ...@#.                               ..$+++..                         ..                               ....    ",
"       .O@@.o.X....@#.               .O@@.o.X...X.O#.               .O@.oo.X.XX...                    .OO.X+.X.O#.                    .X......X.                        ...XXo.O.                        .oo@@O...                    .O@O.XXXX.O#.                   .O.....@#.                       ...@#..                       .#...o.X.                         .#O..Xo.OO.                           ............                        X.O#. ....                          .X$..+.X.                        .@.....                         ..$+++..  ",
"       .....o@..X.O#.                .....o@..XX.+..                .....o@....                        ....o+.+..                      ..O#@#....                    .....XXX.o..                        .o.X...                      ...X.....+..                     ...X.O#..                       X.O#....                     ..O...X@..                        . ..X.Oo...                        ....X..@.......                         .+....$+++..             .. ......  .+$..+.X.                 .......@..$+++..                      .X$..+.X.  ",
"        .X.X.Oo..+..                  .X.X.Oo...o..                  .X....O...                        .X.X.Xo..                      .o...XXX..X.                  .X+X.XXX..o.X.                       ..++..                      .X. .X..X...                      .X..+..X+.                      .+...++.                     ..+.X.O..                        .+...X.....X.                      .X+.....@@@..                        ........X$..+.X.             X+..XX.OO..X++++$++X.              ..X.OOX.O.X$..+.X.              .........+$..+.X.  ",
"        ...X....o..                   ...X..... ..                   ....X...X+.                       ...X....                       ........  ..                   ............X.                      ..+.X.                      ... .X. .+.                       ...o....X.                      o..X...+.                     ... ..+.                         .+X...X.  .                        ..XXX..@@.X.                     .. .XX.OO..+$..+.X.             ..X....@@X..X+X+$.+..           .. .X..@@.+..+$..+.X.              .XX.OO..X++++$++X. ",
"          .X..X...                      .X. .XX.                        .X.  ..X                         .X..X.                       .X. .X.                             .X.    ..                      .X..X.                          .X.  .X.                        ...                           ...+.  .                       o. ...+.                         ....X.                             ......X.X.                      X+.....@@.X++++$++X.            ...XXX.@@.+...X.X.X.            X+...X.@@o..X++++$++X.          .......@@.+.X+X+$.+.. ",
"         .+. .+.                         .+. .+.                         .+.   .                         .+.                             .+.                             .+.                             .+.                             .+.                             .+.                             .+.                             .+..                             .+.                            .X+X.o.X..                       ..XXX..@@..X+X+$.+..               ......o.........             ..XXX...... .X+X+$.+..          X+XXXX.@@....X.XX.X.  ",
"         .X. .X.                         .X. .X.                         .X.                             .X.                             .X.                             .X.                             .X.                             .X                              .X.                             .X.                             .X.                             .X.                              ........                          .................                   .....                     ..... ...   ...X.X.X.           ........... .......   ",
"                                                                                                                                                                                                                                                                                                                                                                                                                                                                                                                       .......                                  ",
"                                                                                                                                                                                                                                                                                                                                                                                                                                                                                                                                                                ",
"                                                                                                                                                                                                                                                                                                                                                                                                                                                                                                                                                                "
};
