/* XPM */
static char *result[] = {
/* columns rows colors chars-per-pixel */
"128 32 22 1 ",
"  c black",
". c #0C0A07",
"X c #291A18",
"o c #342523",
"O c #362623",
"+ c #3A2B28",
"@ c #4C342F",
"# c #553D39",
"$ c #4C403D",
"% c #554C3C",
"& c #425059",
"* c #634A45",
"= c #657358",
"- c #57636B",
"; c #6E7D61",
": c #B56A68",
"> c #87947C",
", c #C0AC98",
"< c #D2A394",
"1 c #E4B5A5",
"2 c #DBCBBC",
"3 c #0C1317",
/* pixels */
"33333333333333333333333333333333333333333333333333333333333333333333333333333333333333333333333333333333333333333333333333333333",
"33333333333333333333333333333333333333333333333333333333333333333333333333333333333333333333333333333333333333333333333333333333",
"33333333333333333333333333333333333333333333333333333333333333333333333333333333333333333333333333333333333333333333333333333333",
"33333333333333333333333333333333333333333333333333333333333333333333333333333333333333333333333333333333333333333333333333333333",
"3333333333333333333333333333333333333333333333...3.33333333333333333333333333333333333333333333333333333333333...3.3333333333333",
"33333333333333...3.33333333333333333333333....@@@.@.33333333333333333333333333...3.33333333333333333333333....@@@.@.333333333333",
"3333333333....@@@.@.333333333333333333333.@@@#***@*.3333333333333333333333....@@@.@.333333333333333333333.@@@#***@*.333333333333",
"333333333.@@@#***@*.3333333333333333333333.#********.33333333333333333333.@@@#***@*.3333333333333333333333.#********.33333333333",
"3333333333.#********.33333333333333333333.#*********.333333333333333333333.#********.33333333333333333333.#*********.33333333333",
"333333333.#*********.33333333333333333333.#****@@*** 33333333333333333333.#*********.33333333333333333333.#****@@*** 33333333333",
"333333333.#****@@*** 3333333333333333333.@@#***<@*@*# 3333333333333333333.#****@@*** 3333333333333333333.@@#***<@*@*# 3333333333",
"33333333.@@#***<@*@*# 3333333333333333333.@***<<<*<* 3333333333333333333.@@#***<@*@*# 3333333333333333333.@***<<<*<* 33333333333",
"333333333.@***<<<*<* 33333333333333333333.#**<<.1<.<# 3333333333333333333.@***<<<*<* 33333333333333333333.#**<<.1<.<# 3333333333",
"333333333.#**<<.1<.<# 333333333333333333.@#*:<<X11X< 33333333333333333333.#**<<.1<.<# 333333333333333333.@#*:<<X11X< 33333333333",
"33333333.@#*:<<X11X< 33333333333333333333.###<<1111< 3333333333333333333.@#*:<<X11X< 33333333333333333333.###<<1111< 33333333333",
"333333333.###<<1111< 333333333333333333333.###<111< 333333333333333333333.###<<1111< 333333333333333333333.###<111< 333333333333",
"3333333333.###<111< 33333333333333333333333.##.<<<.33333333333333333333333.###<111< 33333333333333333333333.##.<<<.3333333333333",
"33333333333.##.<<<.333333333333333333333333.+;+,,,+.33333333333333333333333.##.<<<.333333333333333333333333.+;+,,,+.333333333333",
"33333333333.+;+,,,+.3333333333333333333333.;+$$22,+.33333333333333333333333.+;+,,,+.3333333333333333333333.;+$$22,+.333333333333",
"3333333333.;+$+22,+.3333333333333333333333.;+$+222+.33333333333333333333333.+;$22,+.3333333333333333333333.;+$+222+.333333333333",
"3333333333.;$$$222+.3333333333333333333333.;+$+,22+.3333333333333333333333.++>$222+$.333333333333333333333.;+$+,22+.333333333333",
"3333333333.;;$$+22+.3333333333333333333333.;+$+2,2+.3333333333333333333333.$;$$,22+$.333333333333333333333.;+$+2,2+.333333333333",
"3333333333.;=o$$,2+.3333333333333333333333.;11+&&&+.333333333333333333333.$$=+$2,2++$.33333333333333333333.;11+&&&+.333333333333",
"3333333333.;=o11&&+.33333333333333333333333..&&&&&&.333333333333333333333.<1=++&&&++1.333333333333333333333..&&&&&&.333333333333",
"33333333333..&&----.333333333333333333333333.&&----.3333333333333333333333...&&---...33333333333333333333333.&&----.333333333333",
"333333333333.&--&---.33333333333333333333333.&--&--.333333333333333333333333.&--.-.3333333333333333333333333.&--&--.333333333333",
"333333333333.--&.&--.33333333333333333333333.--&.&-.33333333333333333333333.O.&--..3333333333333333333333333.&-&.&-.333333333333",
"33333333333.%%..3.&&.33333333333333333333333.--&.&&.33333333333333333333333.%..&--.3333333333333333333333333.&-&.&&.333333333333",
"33333333333...333.OO.33333333333333333333333.%%..OO.33333333333333333333333..3.&OO.3333333333333333333333333.OOO.%%.333333333333",
"33333333333333333.O%%.33333333333333333333333..3.O%%.33333333333333333333333333.O%%.333333333333333333333333.%%%...3333333333333",
"333333333333..3333...333333333333333333333333..33...333333333333333333333333.333...33333333333333333333333333...3..3333333333333",
"33333333333333333333333333333333333333333333333333333333333333333333333333333333333333333333333333333333333333333333333333333333"
};
