/* XPM */
static char *_dce27e2aba34ab7ecf77e229cb1a3f1FabjDHnA382FKziF[] = {
/* columns rows colors chars-per-pixel */
"32 32 7 1 ",
"  c #06050D",
". c #4A5462",
"X c #6D758D",
"o c #9BABB2",
"O c #1F242B",
"+ c #333941",
"@ c white",
/* pixels */
"                                ",
" .XooooXXXXXXXX.O.XooooXXXXXXXX ",
" XXXXXXXXXXXXXXXOXXXXXXXXXXXXXX ",
" oXXXXXXXXXXXXXXOoXXXXXXXXXXXXX ",
" oXXXXXXXXXXXXXXOoXXXXXXXXXXXXX ",
" XXXXXXXXXXXXXXX ........XXXXXX ",
" XXXXXXXXXXX.XX. +.......XXXXXX ",
" ..XXXXXXXXXXX.. ++......XXXXXX ",
" OOOOOOOOOOOOOOO         OOOOOO ",
" oooXXXX +XooooX........ .XoooX ",
" XXXXXXX .XXXXXX........ XXXXXX ",
" XXXXXXX oXXXX..........OoXXXXX ",
" XXXXXXX oXXX...........OoXXXXX ",
" XXXXXXX XXX............OXXXXXX ",
" XXXXXX. ..............+OXXXXXX ",
" XXXXX.. .............++O.XXXXX ",
" OOOOOOOOOO             OOOOOOO ",
" .XoooooXX.....+ +.XXXX.oooXXX. ",
" XXXXXXXXX...... X......XXXXXXX ",
" oXXXXXXXX.....+ X......XXXXXXX ",
" oXXXXXXX......+ .......XXXXXXX ",
" XXXXXXXX......+ .......XXXXXXX ",
" .XXXXXX.......+ +......XXXXXXX ",
" ..XXXXX......+O O+.....XXXXXX. ",
" OOOOOOO                OOOOOOO ",
" XXX.... ++XXX........++O.XooXX ",
" XXXXXX. oXX............OXXXXXX ",
" XXXXXXX oXX............OoXXXXX ",
" XXXXXXXOXXX............OoXXXXX ",
" XXXXXXXOXX.............OXXXXXX ",
" XXXXXXXO.X.............OXXXXXX ",
" XXXXXX.O...............O.XXXXX "
};
