/* XPM */
static char *acca08b142294d8fb66fe4668de9fb6fxH2jLyhXgnFfH2Z7[] = {
/* columns rows colors chars-per-pixel */
"224 32 188 2 ",
"   c #0C1317",
".  c #120E0D",
"X  c #1F0F0A",
"o  c #15110F",
"O  c #1A130F",
"+  c #1C1613",
"@  c #1F1814",
"#  c #200F09",
"$  c #24120C",
"%  c #2B150E",
"&  c #2E180F",
"*  c #36170C",
"=  c #36190E",
"-  c #3A1A0F",
";  c #251611",
":  c #231A15",
">  c #2D1B13",
",  c #2B1E18",
"<  c #2E1710",
"1  c #331C13",
"2  c #3A1E12",
"3  c #272018",
"4  c #2D211A",
"5  c #342116",
"6  c #3C2115",
"7  c #34241B",
"8  c #3B251A",
"9  c #3B291D",
"0  c #35281F",
"q  c #3D2C22",
"w  c #302E2D",
"e  c #3D3629",
"r  c #3F392F",
"t  c #39312A",
"y  c #431C12",
"u  c #491D15",
"i  c #432416",
"p  c #482717",
"a  c #4A2917",
"s  c #432519",
"d  c #49261A",
"f  c #44291C",
"g  c #4C2B1B",
"h  c #532D1D",
"j  c #592E1E",
"k  c #4D311E",
"l  c #54311E",
"z  c #5C321D",
"x  c #622917",
"c  c #6E281B",
"v  c #682419",
"b  c #64341E",
"n  c #6B371F",
"m  c #70291B",
"M  c #4C2D20",
"N  c #442D21",
"B  c #532E20",
"V  c #4D3121",
"C  c #453328",
"Z  c #543522",
"A  c #5C3321",
"S  c #5B3A25",
"D  c #5D3C2A",
"F  c #473B33",
"G  c #483C34",
"H  c #483F3A",
"J  c #513D33",
"K  c #623422",
"L  c #6A3725",
"P  c #633A23",
"I  c #6B3C24",
"U  c #693F29",
"Y  c #653F2B",
"T  c #723C25",
"R  c #763D28",
"E  c #793E29",
"W  c #5D402D",
"Q  c #4C4036",
"!  c #5C493C",
"~  c #574637",
"^  c #674027",
"/  c #6D4024",
"(  c #65412A",
")  c #6D4329",
"_  c #734225",
"`  c #7D4425",
"'  c #74462A",
"]  c #7B4429",
"[  c #7C4A2C",
"{  c #7C4928",
"}  c #7E522E",
"|  c #694732",
" . c #6D4932",
".. c #634938",
"X. c #734C35",
"o. c #7C4D31",
"O. c #7C543A",
"+. c #4F4640",
"@. c #514742",
"#. c #554844",
"$. c #594D43",
"%. c #5C524B",
"&. c #5F5047",
"*. c #604943",
"=. c #7D4F42",
"-. c #655443",
";. c #6C5549",
":. c #6D594A",
">. c #7E5044",
",. c #725B4D",
"<. c #7E5943",
"1. c #6A5C55",
"2. c #72614C",
"3. c #6D6253",
"4. c #7C6456",
"5. c #756957",
"6. c #7D6857",
"7. c #7A6B5C",
"8. c #756459",
"9. c #786D64",
"0. c #7D7167",
"q. c #8A3D1F",
"w. c #953E1D",
"e. c #993C22",
"r. c #8B481E",
"t. c #9F481F",
"y. c #844525",
"u. c #82432B",
"i. c #814D2D",
"p. c #834D2C",
"a. c #8B4A26",
"s. c #87502F",
"d. c #8A522E",
"f. c #8C5526",
"g. c #90562F",
"h. c #9C532B",
"j. c #95592B",
"k. c #975426",
"l. c #8E5531",
"z. c #8C5C3B",
"x. c #835539",
"c. c #925630",
"v. c #965930",
"b. c #9C5C32",
"n. c #A94B22",
"m. c #A14920",
"M. c #A2532D",
"N. c #B95D2A",
"B. c #A25D32",
"V. c #9A703C",
"C. c #A56535",
"Z. c #AC6836",
"A. c #B5723B",
"S. c #C2642B",
"D. c #C0722C",
"F. c #CC7B31",
"G. c #835D46",
"H. c #82624E",
"J. c #9B7940",
"K. c #886A56",
"L. c #81735E",
"P. c #847465",
"I. c #8A7B65",
"U. c #8B7868",
"Y. c #D9832F",
"T. c #D28032",
"R. c #D98432",
"E. c #D68A3C",
"W. c #CE9437",
"Q. c #E28F33",
"!. c #E49636",
"~. c #E8A037",
"^. c #E5A23C",
"/. c #EFA43A",
"(. c #EBAB3D",
"). c #E7A037",
"_. c #91816B",
"`. c #98846E",
"'. c #9D8A74",
"]. c #988571",
"[. c #A28D76",
"{. c #AB947B",
"}. c #A69079",
"|. c #CE8846",
" X c #DF9B49",
".X c #EAAD4F",
"XX c #AA9889",
"oX c #B39C88",
/* pixels */
"                                                                                                                                                                                                                                                                                                                                                                                                                                                                ",
"                                                                                                                                                                                                                                                                                                                                                                                                                                                                ",
"                                                                                                                                                                                                                                                                                                                                                                                                                                                                ",
"                                                                                                                                                                                                                                                                                              P.8.                                                                                                                                                              ",
"                                                                                                                                                                                                                                                                                      9   7 C :.;.C 7   9                                                                                                                                                       ",
"                                                                                                                                                                                                                                                                                    P i.i.[ ' [ ' i.[ i.i.P                                                                                                                   [.9.                              ",
"                                                                                                                                                                                                                            +.1.-.e                                               S I g h j j j j j h h g P Z                                             w P._.7.%.w                                                 9   0 ! 2.:.~ 0   9                       ",
"                                                                                                                                                                                                                    @   8 q L.'.].5.q 9   :                                       ) _ s j A L K K A j j d _ (                                     V ) ( D D |  . .X.) P ) ) V                                     V ' i.[ [ ' { ' p.[ i.i.' V                   ",
"                                                                                                                                                                                                                  [ g . 1 &.U.7.7.U.$.i < A [                                     ' _ 2 h A A A A A K j 2 _ '                                   V ^ I I I I P I I I I I I I I M                                   ' h h h j j j j j h h h h )                   ",
"                  8 6 8 f f f g B B B f 8 6 8                                     > ,   : : : , , , , :   , >                                                                                                   : P l 5 s G 3.}.[.3.F g g A P :                                   ( P % 1 2 6 6 6 6 6 1 % I )                                   ( _ d g j A A A A A j g g d I S                                 7 c.g h j K L L L K j j g d d.7                 ",
"                : N g j K L E ] E T L L j g N :                                 @ N f B A L L L R T T K B f N @                                 q 8 8 f f B B B B M M g f 8 8 q                                 + 5 1 > ; O 3 &.! 3 O ; > > 5 +                                   D P 1 , < 1 1 1 1 1 7 ; I P                                   ) I 1 s g h h h h h g d d 1 _ )                                 7 d.6 6 g h g g g g h g 2 6 g.7                 ",
"                , P l d j j L R R L j h d l P ,                                 , V g d h j L E T K j j d g V ,                               , Z g d h j K R E R L A j h d g Z ,                               : l g 1 s d i 2 6 i d i % p l :                                   8 P ;.1.l P I I I Y 9.~ b f                                   P P $ & < < < < < < < < & $ P (                                 7 [ 1 % & < < < < < < & % 1 i.7                 ",
"                7 O.) L ] u.u.u.u.u.u.R K ) O.7                                 7 O.U A L T ] u.u.] T L j U O.7                               7 O.U j L L R u.u.u.u.R L K j U O.7                               , P ' D Z j l l l l l S S ' P ,                                   f { o.x.[ p.i.d.v.d.x.o.' f                                   Z I J H s g g g g g g V @.q I Z                                 4 ) Z @.q g g g g g g J H g ' 4                 ",
"                8 z.) s d z A z z K K h i ) z.8                                 8 z.) s g A A z z K K h i ) z.8                               8 z.) s d j K z b b z K j d i ) z.8                               + A ' H.X._ ' { p.d.p.x.G./ l                                     ( _ 1 2 6 i 6 y i 6 6 1 / )                                   8 I <.H.I ' ' { p.d.d.[ K.X.P 8                                 + l ' K.X._ ' { p.d.p.G.H.I l +                 ",
"                7 l.I 1 d d 6 _ I 2 g g 2 I l.                                  7 l.I 1 d d 6 _ I 2 g g 2 I l.                                7 l.I 1 6 g i h j.d.p i h d 1 I l.                                4 [ P K A I P A L T I I P P [ 4                                   ' _ < 1 1 2 u h.j.j y % _ /                                   S { A K P I A A L T / I P A ' S                                 4 [ P K A I P A L T I I P P [                   ",
"                4  .Z 1 2 g ) ( W k i 2 2 Z  .,                                 4  .Z 1 2 g ) ( W k i 2 2 Z  .4                               4  .Z < 2 6 P ( | | Z g 2 6 1 Z  .,                               7 d.2 & & 1 2 y h.j.j y & 1 c.,                                   ' _ y r.x q.D.R..X Xm.v _ ^                                   ) / % < & 1 2 y h.j.j y & % I '                                 7 d.2 & & 1 2 y h.j.j y & 1 g.7                 ",
"                , S g % 2 ( P.`.`.2.Z 2 $ g S +                                 , S g % 2 ( P.`.`.2.Z 2 $ g S +                               , S g % & g ,.].`.`.I.~ g % $ g S +                               9 c.2 y r.x q.D.R..X Xt.c g d.:                                   ) { ` w.n.Q.).F.E./.R.A.} S                                   ' _ & y r.x q.D.R..X Xt.m i I ^                                 9 c.2 y r.x q.D.R..X Xt.c g d.:                 ",
"                : g i 6 g Q XX{.{.'.e g 2 i g o                                 : g i 6 g Q XX{.{.'.e g 2 6 g o                               : g i 1 g f 0.oX{.{.{.3.8 p 1 i g o                               7 d.z y.w.n.Q.~.F.E./.Y.|.J.[ :                                   P { y.M.e.T.N.F.(.!.S.W.[ Z                                   ) I h y.w.n.Q.~.F.E./.Y.|.V.L S                                 7 d.z y.w.n.Q.~.F.E./.Y.|.J.[ :                 ",
"                : A { d.h G >.4.4.>.G h d.{ P O                                 : A { d.h G >.4.4.>.G h d.{ P O                               : A { v._ 8 ;.=.P.P.=.;.8 _ v.{ P O                               7 [ f.h.M.e.T.N.F.(.!.S.^.j.' :                                   Z s.v.Z.a.T n I / j.B.b.l.V                                   P I a.M.M.e.F.N.F.(.!.S.^.k.P Z                                 7 [ f.h.M.e.T.N.F.(.!.S.^.j.' :                 ",
"                + 8 h g % #.*.6.6.*.#.% g z 8 o                                 + 8 h g % #.*.6.6.*.#.% g z 8 o                               + 8 h h 6 4 1.! `.`.! 1.7 5 z z 8 o                               4 ' c.b.C.` n b / I { B.C.c.[ +                                   , g a 2 2 - * * - 2 2 i g ,                                   Z s.v.B.v.T b b / I I d.Z.c.l.V                                 4 ' c.b.C.` n b / I { B.C.c.[ +                 ",
"                + 1 2 1 % 1 r '._.r 1 $ & 6 1 .                                 + 1 2 1 % 1 r '._.r 1 $ & 6 1 .                               + 1 2 2 % & 4 5.{.I.3.4 & % = 6 1 .                               + 6 g i = 2 = * * * 2 1 6 g s o                                   7 g $ $ # & 2 2 & # # $ g 5                                   , g a 2 2 - * * * * - 2 2 i g ,                                 + 6 g i = 2 = * * * 2 1 6 g s o                 ",
"                : g 1 O # # 9 ,.-.q # X $ 6 g o                                 @ g 1 $ # # 9 ,.-.q # X $ 6 g o                               : g 1 X $ # $ ..8.! ! $ # $ $ 6 g o                               : g 1 X X $ = 2 2 = $ X X 6 g o                                   f h $ % & $ % % % $ $ ; z 8                                   7 g $ # # & 2 2 2 2 & X X $ g 5                                 : g 1 X X $ = 2 2 = $ X X 6 g o                 ",
"                : l 5 1 g i p p i p g 6 1 8 l O                                 : l 5 1 g i p p i p g 6 1 8 l O                               : l 5 & p g i g i i i g p 2 & 8 l O                               : l 5 1 g i p g i g g 6 1 8 l O                                   5 s ; g h p g g l g i > f 5                                   8 g ; p g 6 g g i i g p 2 < l 8                                 : l 5 1 g i p g i g g 6 1 6 l O                 ",
"                  > : ; 5 > > 5 5 5 8 1 ; : >                                     > : ; 5 > > 5 5 5 8 1 ; : >                                   > : ; 1 5 < 1 5 5 5 5 5 ; ; : >                                   > : ; 5 > > 5 5 5 8 1 ; : >                                       o . o o . o o o o . . o                                     > > ; 1 5 < 1 5 5 5 5 5 < ; > :                                   > : ; 5 > > 5 5 5 8 1 ; : >                   ",
"                                                                                                                                                                                                                                                                                                                                                                                                                                                                ",
"                                                                                                                                                                                                                                                                                                                                                                                                                                                                ",
"                                                                                                                                                                                                                                                                                                                                                                                                                                                                ",
"                                                                                                                                                                                                                                                                                                                                                                                                                                                                ",
"                                                                                                                                                                                                                                                                                                                                                                                                                                                                ",
"                                                                                                                                                                                                                                                                                                                                                                                                                                                                ",
"                                                                                                                                                                                                                                                                                                                                                                                                                                                                ",
"                                                                                                                                                                                                                                                                                                                                                                                                                                                                "
};
