/* XPM */
static char *result[] = {
/* columns rows colors chars-per-pixel */
"64 32 16 1 ",
"  c #0C0A07",
". c #362623",
"X c #3A2B28",
"o c #4C342F",
"O c #553D39",
"+ c #4C403D",
"@ c #554C3C",
"# c #425059",
"$ c #634A45",
"% c #5F7050",
"& c #57636B",
"* c #6E7D61",
"= c #8F9D84",
"- c #D2A394",
"; c #E4B5A5",
": c #0C1317",
/* pixels */
"::::::::::::::::::::::::::::::::::::::::::::::::::::::::::::::::",
"::::::::::::::::::::::::::::::::::::::::::::::::::::::::::::::::",
"::::::::::::::::::::::::::::::::::::::::::::::::::::::::::::::::",
"::::::::::::::::::::::::::::::::::::::::::::::::::::::::::::::::",
":::::::::::::::::::::::::::::::::::::::::::::: ::  :::::::::::::",
":::::::::::::: ::  :::::::::::::::::::::::::: o  oo   ::::::::::",
"::::::::::::: o  oo   :::::::::::::::::::::: o$oo$$ooo :::::::::",
":::::::::::: o$oo$$ooo :::::::::::::::::::: $$$$$$$$$ ::::::::::",
"::::::::::: $$$$$$$$$ :::::::::::::::::::: o$$$$$$$oo$ :::::::::",
":::::::::: o$$$$$$$oo$ :::::::::::::::::: oo$$$$$$o$$$ :::::::::",
"::::::::: oo$$$$$$o$$$ ::::::::::::::::::: $$$$$$$$$$$o ::::::::",
":::::::::: $$$$$$$$$$$o :::::::::::::::::: O$$o$o$$$$o :::::::::",
":::::::::: O$$o$o$$$$o :::::::::::::::::: OO$$$o$$$$$O :::::::::",
"::::::::: OO$$$o$$$$$O ::::::::::::::::::: OO$$$$$$$$OO ::::::::",
":::::::::: OO$$$$$$$$OO :::::::::::::::::: OOO$$$$$$OO :::::::::",
":::::::::: OOO$$$$$$OO :::::::::::::::::::: OO$$$$OOO ::::::::::",
"::::::::::: OO$$$$OOO :::::::::::::::::::::: OOOOOOO :::::::::::",
":::::::::::: OOOOOOO :::::::::::::::::::::: X*X***X*X ::::::::::",
"::::::::::: X*X***X*X ::::::::::::::::::::: XX*****XX ::::::::::",
"::::::::::: XX*****XX :::::::::::::::::::: XXX*****XXX :::::::::",
":::::::::: XXX*****XXX ::::::::::::::::::: +*X*===*X*+ :::::::::",
":::::::::: +*X*===*X*+ :::::::::::::::::: ++ **%%%** ++ ::::::::",
"::::::::: ++ **%%%** ++ ::::::::::::::::: ;- X*===*X -; ::::::::",
"::::::::: ;- X*===*X -; ::::::::::::::::::   #######   :::::::::",
"::::::::::   #######   ::::::::::::::::::::: #&&&&&# :::::::::::",
":::::::::::: #&&&&&# ::::::::::::::::::::::: #&&&&&# :::::::::::",
":::::::::::: ### ### ::::::::::::::::::::::: ### ### :::::::::::",
":::::::::::: ## : ## ::::::::::::::::::::::: ## : ## :::::::::::",
":::::::::::: .. : .. ::::::::::::::::::::::: .. : .. :::::::::::",
"::::::::::: @.. : ..@ ::::::::::::::::::::: @.. : ..@ ::::::::::",
":::::::::::           :::::::::::::::::::::           ::::::::::",
"::::::::::::::::::::::::::::::::::::::::::::::::::::::::::::::::"
};
